<?xml version="1.0" encoding="UTF-8" standalone="no"?>
<!-- Created with Inkscape (http://www.inkscape.org/) -->

<svg
   width="116.41092mm"
   height="38.803642mm"
   viewBox="0 0 116.41092 38.803642"
   version="1.1"
   id="svg1"
   sodipodi:docname="tal-plain.svg"
   inkscape:version="1.3 (0e150ed, 2023-07-21)"
   xmlns:inkscape="http://www.inkscape.org/namespaces/inkscape"
   xmlns:sodipodi="http://sodipodi.sourceforge.net/DTD/sodipodi-0.dtd"
   xmlns="http://www.w3.org/2000/svg"
   xmlns:svg="http://www.w3.org/2000/svg">
  <sodipodi:namedview
     id="namedview1"
     pagecolor="#ffffff"
     bordercolor="#666666"
     borderopacity="1.0"
     inkscape:showpageshadow="2"
     inkscape:pageopacity="0.0"
     inkscape:pagecheckerboard="0"
     inkscape:deskcolor="#d1d1d1"
     inkscape:document-units="mm"
     inkscape:zoom="2.3582609"
     inkscape:cx="2.1202065"
     inkscape:cy="51.733038"
     inkscape:window-width="1392"
     inkscape:window-height="847"
     inkscape:window-x="0"
     inkscape:window-y="25"
     inkscape:window-maximized="0"
     inkscape:current-layer="layer1" />
  <defs
     id="defs1" />
  <g
     id="layer1"
     transform="translate(-33.501962,-37.603531)">
    <path
       d="m 36.299035,63.277974 v 1.771416 q 0,0.284461 0.116371,0.374972 0.18102,0.14223 0.646502,0.14223 0.676672,0 1.249904,-0.288771 0.219811,-0.11206 0.344801,-0.11206 0.172401,0 0.297391,0.1293 0.129301,0.129301 0.129301,0.314631 0,0.172401 -0.137921,0.297391 -0.211191,0.202571 -0.836143,0.374972 -0.620642,0.16809 -1.047333,0.16809 -0.823213,0 -1.236974,-0.353421 -0.409452,-0.357731 -0.409452,-0.874933 v -1.943817 h -0.318941 q -0.318941,0 -0.456861,-0.12068 -0.133611,-0.12499 -0.133611,-0.323251 0,-0.193951 0.133611,-0.314631 0.13792,-0.124991 0.456861,-0.124991 h 0.318941 v -0.797352 q 0,-0.318941 0.120681,-0.452552 0.12499,-0.13792 0.323251,-0.13792 0.19395,0 0.314631,0.13792 0.12499,0.133611 0.12499,0.452552 v 0.797352 h 1.633496 q 0.318941,0 0.452551,0.124991 0.137921,0.12068 0.137921,0.318941 0,0.193951 -0.137921,0.318941 -0.13361,0.12068 -0.452551,0.12068 z m 5.331488,-0.883553 v 0.551682 q 0.555992,-0.400831 0.874933,-0.534442 0.323251,-0.13361 0.603402,-0.13361 0.431002,0 0.836143,0.318941 0.275841,0.215501 0.275841,0.439622 0,0.18964 -0.13361,0.323251 -0.129301,0.1293 -0.314631,0.1293 -0.163781,0 -0.344802,-0.16378 -0.18102,-0.163781 -0.323251,-0.163781 -0.18533,0 -0.555992,0.232741 -0.366351,0.232741 -0.918033,0.698222 v 1.331795 h 1.258525 q 0.318941,0 0.452551,0.12499 0.137921,0.120681 0.137921,0.318941 0,0.193951 -0.137921,0.318941 -0.13361,0.120681 -0.452551,0.120681 h -2.667899 q -0.318942,0 -0.456862,-0.120681 -0.13361,-0.12499 -0.13361,-0.323251 0,-0.19395 0.13361,-0.314631 0.13792,-0.12499 0.456862,-0.12499 h 0.525821 v -2.146388 h -0.318941 q -0.318941,0 -0.456861,-0.12068 -0.133611,-0.12499 -0.133611,-0.323251 0,-0.193951 0.133611,-0.314631 0.13792,-0.124991 0.456861,-0.124991 z m 4.986687,3.883324 -1.530055,-2.999771 q -0.215501,-0.02586 -0.327561,-0.14654 -0.11206,-0.12068 -0.11206,-0.293081 0,-0.198261 0.13361,-0.318941 0.137921,-0.124991 0.456862,-0.124991 h 0.805972 q 0.318941,0 0.452552,0.124991 0.13792,0.12068 0.13792,0.318941 0,0.193951 -0.13792,0.318941 -0.133611,0.12068 -0.426692,0.12068 l 1.043024,2.030017 1.034404,-2.030017 q -0.284461,0 -0.422382,-0.12068 -0.13361,-0.12499 -0.13361,-0.323251 0,-0.193951 0.13361,-0.314631 0.137921,-0.124991 0.456862,-0.124991 h 0.831833 q 0.314631,0 0.448241,0.124991 0.13792,0.12068 0.13792,0.318941 0,0.176711 -0.11637,0.301701 -0.11637,0.12068 -0.344801,0.13792 l -2.025707,3.991074 q 0.331871,0 0.435312,0.06465 0.20688,0.133611 0.20688,0.379282 0,0.19395 -0.13792,0.314631 -0.133611,0.12499 -0.452552,0.12499 h -1.926576 q -0.318941,0 -0.456862,-0.12499 -0.13361,-0.120681 -0.13361,-0.314631 0,-0.198261 0.13361,-0.323252 0.137921,-0.12068 0.456862,-0.12068 h 0.879243 z m 11.882711,0.03017 v -0.206881 q -0.331871,0.176711 -0.732703,0.262911 -0.400831,0.09051 -0.728392,0.09051 -0.711153,0 -1.155084,-0.374971 -0.443932,-0.379281 -0.443932,-0.836143 0,-0.555992 0.564612,-1.030093 0.568922,-0.478412 1.568846,-0.478412 0.400831,0 0.926653,0.0862 v -0.21119 q 0,-0.198261 -0.172401,-0.323252 -0.16809,-0.12499 -0.646502,-0.12499 -0.392211,0 -1.017163,0.155161 -0.232741,0.05603 -0.362042,0.05603 -0.17671,0 -0.301701,-0.124991 -0.12068,-0.1293 -0.12068,-0.327561 0,-0.11206 0.0431,-0.19395 0.0431,-0.08189 0.12068,-0.129301 0.07758,-0.05172 0.323252,-0.12068 0.327561,-0.09051 0.668052,-0.142231 0.340491,-0.05603 0.616332,-0.05603 0.823213,0 1.275764,0.357731 0.456862,0.353421 0.456862,0.969754 v 1.818826 h 0.15085 q 0.318941,0 0.452552,0.12499 0.13792,0.120681 0.13792,0.318941 0,0.193951 -0.13792,0.318941 -0.133611,0.120681 -0.452552,0.120681 z m 0,-1.581776 q -0.530132,-0.10344 -0.978374,-0.10344 -0.538751,0 -0.926653,0.262911 -0.24136,0.16809 -0.24136,0.340491 0,0.12499 0.11637,0.202571 0.215501,0.14223 0.590472,0.14223 0.318941,0 0.719772,-0.12499 0.405142,-0.124991 0.719773,-0.340491 z m 4.943587,-4.008313 v 4.706536 h 1.060264 q 0.318941,0 0.452551,0.12499 0.137921,0.120681 0.137921,0.318941 0,0.193951 -0.137921,0.318941 -0.13361,0.120681 -0.452551,0.120681 h -3.00408 q -0.318942,0 -0.456862,-0.120681 -0.13361,-0.12499 -0.13361,-0.323251 0,-0.19395 0.13361,-0.314631 0.13792,-0.12499 0.456862,-0.12499 h 1.060263 v -3.822983 h -0.711152 q -0.314631,0 -0.452552,-0.120681 -0.13792,-0.12499 -0.13792,-0.323251 0,-0.19395 0.13361,-0.314631 0.137921,-0.12499 0.456862,-0.12499 z m 5.297007,0 v 4.706536 h 1.060263 q 0.318941,0 0.452552,0.12499 0.13792,0.120681 0.13792,0.318941 0,0.193951 -0.13792,0.318941 -0.133611,0.120681 -0.452552,0.120681 h -3.00408 q -0.318941,0 -0.456861,-0.120681 -0.133611,-0.12499 -0.133611,-0.323251 0,-0.19395 0.133611,-0.314631 0.13792,-0.12499 0.456861,-0.12499 h 1.060264 v -3.822983 h -0.711153 q -0.314631,0 -0.452551,-0.120681 -0.137921,-0.12499 -0.137921,-0.323251 0,-0.19395 0.133611,-0.314631 0.13792,-0.12499 0.456861,-0.12499 z m 10.594017,0 v 4.706536 h 1.060263 q 0.318941,0 0.452552,0.12499 0.13792,0.120681 0.13792,0.318941 0,0.193951 -0.13792,0.318941 -0.133611,0.120681 -0.452552,0.120681 h -3.00408 q -0.318941,0 -0.456861,-0.120681 -0.133611,-0.12499 -0.133611,-0.323251 0,-0.19395 0.133611,-0.314631 0.13792,-0.12499 0.456861,-0.12499 h 1.060264 v -3.822983 h -0.711153 q -0.314631,0 -0.452551,-0.120681 -0.137921,-0.12499 -0.137921,-0.323251 0,-0.19395 0.133611,-0.314631 0.13792,-0.12499 0.456861,-0.12499 z m 5.650429,5.590089 v -0.206881 q -0.331871,0.176711 -0.732702,0.262911 -0.400831,0.09051 -0.728392,0.09051 -0.711153,0 -1.155084,-0.374971 -0.443932,-0.379281 -0.443932,-0.836143 0,-0.555992 0.564612,-1.030093 0.568922,-0.478412 1.568845,-0.478412 0.400832,0 0.926653,0.0862 v -0.21119 q 0,-0.198261 -0.1724,-0.323252 -0.168091,-0.12499 -0.646502,-0.12499 -0.392212,0 -1.017164,0.155161 -0.232741,0.05603 -0.362041,0.05603 -0.176711,0 -0.301701,-0.124991 -0.12068,-0.1293 -0.12068,-0.327561 0,-0.11206 0.0431,-0.19395 0.0431,-0.08189 0.12068,-0.129301 0.07758,-0.05172 0.323251,-0.12068 0.327561,-0.09051 0.668052,-0.142231 0.340492,-0.05603 0.616333,-0.05603 0.823212,0 1.275764,0.357731 0.456861,0.353421 0.456861,0.969754 v 1.818826 h 0.150851 q 0.318941,0 0.452552,0.12499 0.13792,0.120681 0.13792,0.318941 0,0.193951 -0.13792,0.318941 -0.133611,0.120681 -0.452552,0.120681 z m 0,-1.581776 q -0.530131,-0.10344 -0.978373,-0.10344 -0.538752,0 -0.926653,0.262911 -0.241361,0.16809 -0.241361,0.340491 0,0.12499 0.116371,0.202571 0.2155,0.14223 0.590472,0.14223 0.318941,0 0.719772,-0.12499 0.405141,-0.124991 0.719772,-0.340491 z m 3.607483,-2.331718 v 0.297391 q 0.241361,-0.20688 0.530132,-0.310321 0.293081,-0.10344 0.633572,-0.10344 0.784423,0 1.241284,0.487032 0.362042,0.387901 0.362042,1.017163 v 1.642116 q 0.280151,0 0.413761,0.12499 0.133611,0.120681 0.133611,0.318941 0,0.193951 -0.137921,0.318941 -0.13361,0.120681 -0.452551,0.120681 h -0.797353 q -0.318941,0 -0.456862,-0.120681 -0.13361,-0.12499 -0.13361,-0.323251 0,-0.19395 0.13361,-0.314631 0.133611,-0.12499 0.413762,-0.12499 v -1.667976 q 0,-0.288771 -0.155161,-0.422381 -0.202571,-0.172401 -0.607712,-0.172401 -0.306011,0 -0.538752,0.12068 -0.228431,0.116371 -0.581852,0.499962 v 1.642116 q 0.340491,0 0.439622,0.06465 0.21119,0.1293 0.21119,0.379281 0,0.193951 -0.13792,0.318941 -0.13361,0.120681 -0.452552,0.120681 h -1.004233 q -0.318941,0 -0.456862,-0.120681 -0.13361,-0.12499 -0.13361,-0.323251 0,-0.241361 0.206881,-0.374971 0.10344,-0.06465 0.443931,-0.06465 v -2.146388 q -0.280151,0 -0.413761,-0.12499 -0.133611,-0.12499 -0.133611,-0.318941 0,-0.193951 0.133611,-0.314631 0.13792,-0.124991 0.456861,-0.124991 z m 7.163245,0.262911 v -0.262911 h 1.034404 q 0.318941,0 0.452551,0.124991 0.137921,0.12068 0.137921,0.318941 0,0.193951 -0.137921,0.318941 -0.13361,0.12068 -0.452551,0.12068 h -0.150851 v 3.215271 q 0,0.465482 -0.198261,0.810283 -0.19395,0.349111 -0.599092,0.599092 -0.405141,0.249981 -0.913723,0.249981 h -0.999923 q -0.318941,0 -0.456862,-0.12499 -0.13361,-0.120681 -0.13361,-0.314631 0,-0.198261 0.13361,-0.323252 0.137921,-0.12068 0.456862,-0.12068 h 0.974063 q 0.405142,0 0.629262,-0.219811 0.224121,-0.21981 0.224121,-0.555992 v -0.431001 q -0.293081,0.189641 -0.599092,0.284461 -0.301701,0.09482 -0.620642,0.09482 -0.900793,0 -1.508505,-0.599092 -0.607712,-0.603402 -0.607712,-1.486955 0,-0.887863 0.607712,-1.486955 0.607712,-0.603402 1.508505,-0.603402 0.336181,0 0.637882,0.09913 0.306011,0.09482 0.581852,0.293081 z m -0.0043,1.693836 q 0,-0.487032 -0.362041,-0.844763 -0.357731,-0.357731 -0.862003,-0.357731 -0.504272,0 -0.866313,0.357731 -0.357731,0.357731 -0.357731,0.844763 0,0.491342 0.357731,0.849073 0.362041,0.353421 0.866313,0.353421 0.504272,0 0.862003,-0.353421 0.362041,-0.357731 0.362041,-0.849073 z m 6.206421,-1.956747 v 3.029941 q 0.28015,0 0.41376,0.12499 0.13361,0.124991 0.13361,0.318941 0,0.193951 -0.13792,0.318941 -0.13361,0.120681 -0.45255,0.120681 h -0.84046 v -0.202571 q -0.37928,0.172401 -0.72408,0.258601 -0.3448,0.0862 -0.655121,0.0862 -0.435311,0 -0.754252,-0.18102 -0.318941,-0.185331 -0.504272,-0.508582 -0.133611,-0.232741 -0.133611,-0.581852 v -1.900717 h -0.15085 q -0.318941,0 -0.456862,-0.12068 -0.13361,-0.12499 -0.13361,-0.323251 0,-0.193951 0.13361,-0.314631 0.137921,-0.124991 0.456862,-0.124991 h 1.034403 v 2.629109 q 0,0.280151 0.133611,0.413762 0.13792,0.1293 0.418071,0.1293 0.267221,0 0.573231,-0.10344 0.31032,-0.107751 0.76287,-0.383591 v -1.801587 h -0.31894 q -0.31894,0 -0.45686,-0.12068 -0.13361,-0.12499 -0.13361,-0.323251 0,-0.193951 0.13361,-0.314631 0.13792,-0.124991 0.45686,-0.124991 z m 4.2152,3.913494 v -0.206881 q -0.33188,0.176711 -0.73271,0.262911 -0.40083,0.09051 -0.72839,0.09051 -0.71115,0 -1.15508,-0.374971 -0.44393,-0.379281 -0.44393,-0.836143 0,-0.555992 0.56461,-1.030093 0.56892,-0.478412 1.56884,-0.478412 0.40083,0 0.92666,0.0862 v -0.21119 q 0,-0.198261 -0.17241,-0.323252 -0.16809,-0.12499 -0.6465,-0.12499 -0.39221,0 -1.01716,0.155161 -0.23274,0.05603 -0.36204,0.05603 -0.17671,0 -0.3017,-0.124991 -0.12068,-0.1293 -0.12068,-0.327561 0,-0.11206 0.0431,-0.19395 0.0431,-0.08189 0.12068,-0.129301 0.0776,-0.05172 0.32325,-0.12068 0.32756,-0.09051 0.66805,-0.142231 0.34049,-0.05603 0.61633,-0.05603 0.82322,0 1.27577,0.357731 0.45686,0.353421 0.45686,0.969754 v 1.818826 h 0.15085 q 0.31894,0 0.45255,0.12499 0.13792,0.120681 0.13792,0.318941 0,0.193951 -0.13792,0.318941 -0.13361,0.120681 -0.45255,0.120681 z m 0,-1.581776 q -0.53014,-0.10344 -0.97838,-0.10344 -0.53875,0 -0.92665,0.262911 -0.24136,0.16809 -0.24136,0.340491 0,0.12499 0.11637,0.202571 0.2155,0.14223 0.59047,0.14223 0.31894,0 0.71977,-0.12499 0.40514,-0.124991 0.71978,-0.340491 z m 5.47371,-2.068807 v -0.262911 h 1.0344 q 0.31895,0 0.45256,0.124991 0.13792,0.12068 0.13792,0.318941 0,0.193951 -0.13792,0.318941 -0.13361,0.12068 -0.45256,0.12068 h -0.15085 v 3.215271 q 0,0.465482 -0.19826,0.810283 -0.19395,0.349111 -0.59909,0.599092 -0.40514,0.249981 -0.91372,0.249981 h -0.99993 q -0.31894,0 -0.45686,-0.12499 -0.13361,-0.120681 -0.13361,-0.314631 0,-0.198261 0.13361,-0.323252 0.13792,-0.12068 0.45686,-0.12068 h 0.97407 q 0.40514,0 0.62926,-0.219811 0.22412,-0.21981 0.22412,-0.555992 v -0.431001 q -0.29308,0.189641 -0.59909,0.284461 -0.3017,0.09482 -0.62064,0.09482 -0.9008,0 -1.50851,-0.599092 -0.60771,-0.603402 -0.60771,-1.486955 0,-0.887863 0.60771,-1.486955 0.60771,-0.603402 1.50851,-0.603402 0.33618,0 0.63788,0.09913 0.30601,0.09482 0.58185,0.293081 z m -0.004,1.693836 q 0,-0.487032 -0.36204,-0.844763 -0.35773,-0.357731 -0.862,-0.357731 -0.50428,0 -0.86632,0.357731 -0.35773,0.357731 -0.35773,0.844763 0,0.491342 0.35773,0.849073 0.36204,0.353421 0.86632,0.353421 0.50427,0 0.862,-0.353421 0.36204,-0.357731 0.36204,-0.849073 z m 6.54692,0.448242 h -3.62472 q 0.13792,0.344801 0.48703,0.555991 0.35342,0.211191 0.95251,0.211191 0.49134,0 1.30593,-0.211191 0.33619,-0.0862 0.46549,-0.0862 0.17671,0 0.29739,0.124991 0.12068,0.12499 0.12068,0.314631 0,0.1724 -0.1293,0.293081 -0.1724,0.15947 -0.84046,0.306011 -0.66805,0.14223 -1.28438,0.14223 -1.06026,0 -1.69815,-0.599092 -0.63357,-0.599092 -0.63357,-1.474025 0,-0.930963 0.68529,-1.512815 0.68961,-0.586162 1.58609,-0.586162 0.53875,0 0.98699,0.189641 0.45255,0.18964 0.67237,0.409451 0.31032,0.318941 0.51289,0.788733 0.13792,0.327561 0.13792,0.758562 z m -0.97838,-0.883553 q -0.20257,-0.379282 -0.53013,-0.564612 -0.32756,-0.189641 -0.78011,-0.189641 -0.44824,0 -0.7758,0.189641 -0.32756,0.18533 -0.53444,0.564612 z m 5.01255,-0.487032 q -0.2155,-0.133611 -0.45255,-0.198261 -0.23705,-0.06896 -0.49566,-0.06896 -0.51289,0 -0.81459,0.168091 -0.13361,0.07327 -0.13361,0.15947 0,0.09913 0.18102,0.193951 0.13792,0.06896 0.61633,0.13361 0.87925,0.120681 1.22405,0.241361 0.45255,0.159471 0.69822,0.474102 0.24567,0.314631 0.24567,0.663742 0,0.474102 -0.41807,0.793043 -0.59909,0.461171 -1.55592,0.461171 -0.38359,0 -0.71115,-0.06896 -0.32325,-0.06465 -0.59478,-0.193951 -0.0647,0.05603 -0.13792,0.0862 -0.0733,0.03017 -0.15085,0.03017 -0.20688,0 -0.33187,-0.133611 -0.12068,-0.13792 -0.12068,-0.456861 v -0.297391 q 0,-0.318941 0.12068,-0.452552 0.12499,-0.13792 0.32325,-0.13792 0.15947,0 0.26722,0.09051 0.10775,0.0862 0.16809,0.301701 0.20257,0.172401 0.48703,0.262911 0.28446,0.0862 0.65512,0.0862 0.60772,0 0.9439,-0.18964 0.15947,-0.09482 0.15947,-0.198261 0,-0.172401 -0.22843,-0.284461 -0.22843,-0.11206 -0.9439,-0.189641 -1.06457,-0.11206 -1.4223,-0.431001 -0.35773,-0.314631 -0.35773,-0.775803 0,-0.474101 0.40083,-0.788733 0.54306,-0.431001 1.4223,-0.431001 0.30602,0 0.58617,0.06034 0.28446,0.05603 0.54306,0.176711 0.0819,-0.06034 0.15085,-0.09051 0.0733,-0.03017 0.13361,-0.03017 0.18102,0 0.3017,0.137921 0.12068,0.13361 0.12068,0.452551 v 0.215501 q 0,0.288771 -0.069,0.392211 -0.13792,0.198261 -0.37497,0.198261 -0.15947,0 -0.28015,-0.09913 -0.12068,-0.09913 -0.15516,-0.262911 z"
       id="text3"
       style="font-weight:bold;font-size:8.82691px;line-height:1.25;font-family:'Courier New';-inkscape-font-specification:'Courier New, Bold';word-spacing:0px;fill:#f9f9f9;stroke-width:0.220673"
       aria-label="try all languages" />
    <path
       d="m 37.330212,50.761056 v 3.40239 q 0,0.546369 0.223515,0.720213 0.34769,0.273185 1.241748,0.273185 1.299696,0 2.400713,-0.554647 0.422194,-0.215237 0.662266,-0.215237 0.331133,0 0.571204,0.24835 0.248349,0.248349 0.248349,0.604317 0,0.331133 -0.264906,0.571204 -0.405637,0.389081 -1.605994,0.720214 -1.192078,0.322855 -2.011632,0.322855 -1.581159,0 -2.375878,-0.678823 -0.78644,-0.6871 -0.78644,-1.680499 v -3.733522 h -0.612596 q -0.612596,0 -0.877502,-0.231793 -0.256628,-0.240071 -0.256628,-0.620874 0,-0.372525 0.256628,-0.604318 Q 34.407965,49.064 35.020561,49.064 h 0.612596 v -1.531489 q 0,-0.612596 0.231793,-0.869224 0.240071,-0.264906 0.620874,-0.264906 0.372524,0 0.604317,0.264906 0.240071,0.256628 0.240071,0.869224 V 49.064 h 3.137484 q 0.612596,0 0.869224,0.240071 0.264906,0.231793 0.264906,0.612596 0,0.372525 -0.264906,0.612596 -0.256628,0.231793 -0.869224,0.231793 z m 14.14765,1.779839 H 44.39162 v -1.548046 h 7.086242 z m 8.145868,4.03982 v -0.397359 q -0.637431,0.339411 -1.407315,0.504977 -0.769883,0.173845 -1.399036,0.173845 -1.365923,0 -2.21859,-0.720214 -0.852667,-0.728492 -0.852667,-1.605994 0,-1.067903 1.08446,-1.978519 1.092739,-0.918893 3.013309,-0.918893 0.769884,0 1.779839,0.165566 v -0.405637 q 0,-0.380803 -0.331133,-0.620875 -0.322854,-0.240071 -1.241748,-0.240071 -0.753327,0 -1.953684,0.29802 -0.447029,0.107618 -0.695379,0.107618 -0.339411,0 -0.579482,-0.240071 -0.231793,-0.24835 -0.231793,-0.629153 0,-0.215236 0.08278,-0.372524 0.08278,-0.157288 0.231793,-0.24835 0.14901,-0.09934 0.620874,-0.231793 0.629153,-0.173845 1.28314,-0.273184 0.653987,-0.107619 1.1838,-0.107619 1.581159,0 2.450383,0.687101 0.877502,0.678822 0.877502,1.862622 v 3.493451 h 0.289741 q 0.612595,0 0.869223,0.240072 0.264907,0.231793 0.264907,0.612595 0,0.372525 -0.264907,0.612596 -0.256628,0.231793 -0.869223,0.231793 z m 0,-3.038143 q -1.018234,-0.19868 -1.879179,-0.19868 -1.03479,0 -1.779839,0.504977 -0.463586,0.322855 -0.463586,0.653988 0,0.240071 0.223515,0.389081 0.413916,0.273184 1.13413,0.273184 0.612596,0 1.382479,-0.240071 0.778162,-0.240071 1.38248,-0.653987 z m 12.202243,-1.001677 h -7.086242 v -1.548046 h 7.086242 z m 7.467047,-6.697162 v 9.039926 h 2.036467 q 0.612595,0 0.869223,0.240072 0.264906,0.231793 0.264906,0.612595 0,0.372525 -0.264906,0.612596 -0.256628,0.231793 -0.869223,0.231793 h -5.76999 q -0.612596,0 -0.877502,-0.231793 -0.256628,-0.240071 -0.256628,-0.620874 0,-0.372524 0.256628,-0.604317 0.264906,-0.240072 0.877502,-0.240072 h 2.036467 v -7.34287 h -1.365923 q -0.604317,0 -0.869224,-0.231793 -0.264906,-0.240071 -0.264906,-0.620874 0,-0.372524 0.256628,-0.604317 0.264906,-0.240072 0.877502,-0.240072 z m 10.621086,9.884315 q 0,0.480143 -0.339411,0.802997 -0.339411,0.322855 -0.93545,0.322855 -0.596039,0 -0.935451,-0.322855 -0.339411,-0.322854 -0.339411,-0.802997 0,-0.480142 0.339411,-0.802997 0.339412,-0.322854 0.935451,-0.322854 0.596039,0 0.93545,0.322854 0.339411,0.322855 0.339411,0.802997 z m 13.286704,-2.764959 q 0,0.976842 -0.54637,1.895736 -0.53809,0.910615 -1.61427,1.456984 -1.067907,0.538091 -2.235151,0.538091 -1.158964,0 -2.218589,-0.529813 -1.059625,-0.538091 -1.614273,-1.456984 -0.554647,-0.918894 -0.554647,-1.920571 0,-1.018233 0.562925,-1.995075 0.562926,-0.98512 1.614273,-1.548046 1.059625,-0.562926 2.210311,-0.562926 1.158965,0 2.226871,0.579483 1.07618,0.571204 1.62255,1.548046 0.54637,0.968563 0.54637,1.995075 z m -1.69706,0.0083 q 0,-0.819553 -0.58776,-1.506654 -0.803,-0.927172 -2.110971,-0.927172 -1.150686,0 -1.92057,0.736771 -0.769884,0.73677 -0.769884,1.705334 0,0.794719 0.778162,1.490097 0.778163,0.687101 1.912292,0.687101 1.142409,0 1.920571,-0.687101 0.77816,-0.695378 0.77816,-1.498376 z M 108.61483,49.064 v 1.059625 q 1.0679,-0.769884 1.6805,-1.026512 0.62087,-0.256628 1.15896,-0.256628 0.82784,0 1.606,0.612596 0.52981,0.413916 0.52981,0.844389 0,0.364246 -0.25663,0.620874 -0.24835,0.24835 -0.60431,0.24835 -0.31458,0 -0.66227,-0.314577 -0.34769,-0.314576 -0.62087,-0.314576 -0.35597,0 -1.06791,0.447029 -0.70365,0.44703 -1.76328,1.341088 v 2.558001 h 2.41727 q 0.6126,0 0.86922,0.240072 0.26491,0.231793 0.26491,0.612595 0,0.372525 -0.26491,0.612596 -0.25662,0.231793 -0.86922,0.231793 h -5.12428 q -0.6126,0 -0.8775,-0.231793 -0.25663,-0.240071 -0.25663,-0.620874 0,-0.372524 0.25663,-0.604317 0.2649,-0.240072 0.8775,-0.240072 h 1.00995 v -4.122603 h -0.61259 q -0.6126,0 -0.8775,-0.231793 -0.25663,-0.240071 -0.25663,-0.620874 0,-0.372525 0.25663,-0.604318 0.2649,-0.240071 0.8775,-0.240071 z m 12.39265,0.504978 V 49.064 h 1.98679 q 0.6126,0 0.86923,0.240071 0.2649,0.231793 0.2649,0.612596 0,0.372525 -0.2649,0.612596 -0.25663,0.231793 -0.86923,0.231793 h -0.28974 v 6.175627 q 0,0.894059 -0.3808,1.556324 -0.37252,0.670544 -1.15069,1.150687 -0.77816,0.480142 -1.755,0.480142 h -1.92057 q -0.6126,0 -0.8775,-0.240071 -0.25663,-0.231793 -0.25663,-0.604317 0,-0.380803 0.25663,-0.620874 0.2649,-0.231793 0.8775,-0.231793 h 1.8709 q 0.77816,0 1.20863,-0.422195 0.43048,-0.422194 0.43048,-1.067903 v -0.827832 q -0.56293,0.364246 -1.15069,0.546369 -0.57948,0.182123 -1.19208,0.182123 -1.73017,0 -2.89741,-1.150686 -1.16724,-1.158965 -1.16724,-2.856021 0,-1.705334 1.16724,-2.856021 1.16724,-1.158964 2.89741,-1.158964 0.64571,0 1.22519,0.190401 0.58776,0.182123 1.11758,0.562926 z m -0.008,3.25338 q 0,-0.935451 -0.69538,-1.622551 -0.6871,-0.687101 -1.65566,-0.687101 -0.96857,0 -1.66395,0.687101 -0.6871,0.6871 -0.6871,1.622551 0,0.943728 0.6871,1.630829 0.69538,0.678822 1.66395,0.678822 0.96856,0 1.65566,-0.678822 0.69538,-0.687101 0.69538,-1.630829 z"
       id="text1"
       style="font-weight:bold;font-size:16.954px;line-height:1.25;font-family:'Courier New';-inkscape-font-specification:'Courier New, Bold';word-spacing:0px;fill:#f9f9f9;stroke-width:0.534896"
       aria-label="t-a-l.org" />
  </g>
</svg>
