<?xml version="1.0" encoding="UTF-8" standalone="no"?>
<!-- Created with Inkscape (http://www.inkscape.org/) -->

<svg
   width="116.41092mm"
   height="38.803642mm"
   viewBox="0 0 116.41092 38.803642"
   version="1.1"
   id="svg1"
   sodipodi:docname="tal-plain.svg"
   inkscape:version="1.3 (0e150ed, 2023-07-21)"
   xmlns:inkscape="http://www.inkscape.org/namespaces/inkscape"
   xmlns:sodipodi="http://sodipodi.sourceforge.net/DTD/sodipodi-0.dtd"
   xmlns="http://www.w3.org/2000/svg"
   xmlns:svg="http://www.w3.org/2000/svg">
  <sodipodi:namedview
     id="namedview1"
     pagecolor="#ffffff"
     bordercolor="#666666"
     borderopacity="1.0"
     inkscape:showpageshadow="2"
     inkscape:pageopacity="0.0"
     inkscape:pagecheckerboard="0"
     inkscape:deskcolor="#d1d1d1"
     inkscape:document-units="mm"
     inkscape:zoom="1.5416662"
     inkscape:cx="49.297312"
     inkscape:cy="79.783807"
     inkscape:window-width="1392"
     inkscape:window-height="847"
     inkscape:window-x="0"
     inkscape:window-y="25"
     inkscape:window-maximized="0"
     inkscape:current-layer="svg1" />
  <defs
     id="defs1" />
  <g
     id="layer1"
     transform="translate(-33.501962,-37.603531)">
    <path
       d="m 37.330212,50.761056 v 3.40239 q 0,0.546369 0.223515,0.720213 0.34769,0.273185 1.241748,0.273185 1.299696,0 2.400713,-0.554647 0.422194,-0.215237 0.662266,-0.215237 0.331133,0 0.571204,0.24835 0.248349,0.248349 0.248349,0.604317 0,0.331133 -0.264906,0.571204 -0.405637,0.389081 -1.605994,0.720214 -1.192078,0.322855 -2.011632,0.322855 -1.581159,0 -2.375878,-0.678823 -0.78644,-0.6871 -0.78644,-1.680499 v -3.733522 h -0.612596 q -0.612596,0 -0.877502,-0.231793 -0.256628,-0.240071 -0.256628,-0.620874 0,-0.372525 0.256628,-0.604318 Q 34.407965,49.064 35.020561,49.064 h 0.612596 v -1.531489 q 0,-0.612596 0.231793,-0.869224 0.240071,-0.264906 0.620874,-0.264906 0.372524,0 0.604317,0.264906 0.240071,0.256628 0.240071,0.869224 V 49.064 h 3.137484 q 0.612596,0 0.869224,0.240071 0.264906,0.231793 0.264906,0.612596 0,0.372525 -0.264906,0.612596 -0.256628,0.231793 -0.869224,0.231793 z m 14.14765,1.779839 H 44.39162 v -1.548046 h 7.086242 z m 8.145868,4.03982 v -0.397359 q -0.637431,0.339411 -1.407315,0.504977 -0.769883,0.173845 -1.399036,0.173845 -1.365923,0 -2.21859,-0.720214 -0.852667,-0.728492 -0.852667,-1.605994 0,-1.067903 1.08446,-1.978519 1.092739,-0.918893 3.013309,-0.918893 0.769884,0 1.779839,0.165566 v -0.405637 q 0,-0.380803 -0.331133,-0.620875 -0.322854,-0.240071 -1.241748,-0.240071 -0.753327,0 -1.953684,0.29802 -0.447029,0.107618 -0.695379,0.107618 -0.339411,0 -0.579482,-0.240071 -0.231793,-0.24835 -0.231793,-0.629153 0,-0.215236 0.08278,-0.372524 0.08278,-0.157288 0.231793,-0.24835 0.14901,-0.09934 0.620874,-0.231793 0.629153,-0.173845 1.28314,-0.273184 0.653987,-0.107619 1.1838,-0.107619 1.581159,0 2.450383,0.687101 0.877502,0.678822 0.877502,1.862622 v 3.493451 h 0.289741 q 0.612595,0 0.869223,0.240072 0.264907,0.231793 0.264907,0.612595 0,0.372525 -0.264907,0.612596 -0.256628,0.231793 -0.869223,0.231793 z m 0,-3.038143 q -1.018234,-0.19868 -1.879179,-0.19868 -1.03479,0 -1.779839,0.504977 -0.463586,0.322855 -0.463586,0.653988 0,0.240071 0.223515,0.389081 0.413916,0.273184 1.13413,0.273184 0.612596,0 1.382479,-0.240071 0.778162,-0.240071 1.38248,-0.653987 z m 12.202243,-1.001677 h -7.086242 v -1.548046 h 7.086242 z m 7.467047,-6.697162 v 9.039926 h 2.036467 q 0.612595,0 0.869223,0.240072 0.264906,0.231793 0.264906,0.612595 0,0.372525 -0.264906,0.612596 -0.256628,0.231793 -0.869223,0.231793 h -5.76999 q -0.612596,0 -0.877502,-0.231793 -0.256628,-0.240071 -0.256628,-0.620874 0,-0.372524 0.256628,-0.604317 0.264906,-0.240072 0.877502,-0.240072 h 2.036467 v -7.34287 h -1.365923 q -0.604317,0 -0.869224,-0.231793 -0.264906,-0.240071 -0.264906,-0.620874 0,-0.372524 0.256628,-0.604317 0.264906,-0.240072 0.877502,-0.240072 z m 10.621086,9.884315 q 0,0.480143 -0.339411,0.802997 -0.339411,0.322855 -0.93545,0.322855 -0.596039,0 -0.935451,-0.322855 -0.339411,-0.322854 -0.339411,-0.802997 0,-0.480142 0.339411,-0.802997 0.339412,-0.322854 0.935451,-0.322854 0.596039,0 0.93545,0.322854 0.339411,0.322855 0.339411,0.802997 z m 13.286704,-2.764959 q 0,0.976842 -0.54637,1.895736 -0.53809,0.910615 -1.61427,1.456984 -1.067907,0.538091 -2.235151,0.538091 -1.158964,0 -2.218589,-0.529813 -1.059625,-0.538091 -1.614273,-1.456984 -0.554647,-0.918894 -0.554647,-1.920571 0,-1.018233 0.562925,-1.995075 0.562926,-0.98512 1.614273,-1.548046 1.059625,-0.562926 2.210311,-0.562926 1.158965,0 2.226871,0.579483 1.07618,0.571204 1.62255,1.548046 0.54637,0.968563 0.54637,1.995075 z m -1.69706,0.0083 q 0,-0.819553 -0.58776,-1.506654 -0.803,-0.927172 -2.110971,-0.927172 -1.150686,0 -1.92057,0.736771 -0.769884,0.73677 -0.769884,1.705334 0,0.794719 0.778162,1.490097 0.778163,0.687101 1.912292,0.687101 1.142409,0 1.920571,-0.687101 0.77816,-0.695378 0.77816,-1.498376 z M 108.61483,49.064 v 1.059625 q 1.0679,-0.769884 1.6805,-1.026512 0.62087,-0.256628 1.15896,-0.256628 0.82784,0 1.606,0.612596 0.52981,0.413916 0.52981,0.844389 0,0.364246 -0.25663,0.620874 -0.24835,0.24835 -0.60431,0.24835 -0.31458,0 -0.66227,-0.314577 -0.34769,-0.314576 -0.62087,-0.314576 -0.35597,0 -1.06791,0.447029 -0.70365,0.44703 -1.76328,1.341088 v 2.558001 h 2.41727 q 0.6126,0 0.86922,0.240072 0.26491,0.231793 0.26491,0.612595 0,0.372525 -0.26491,0.612596 -0.25662,0.231793 -0.86922,0.231793 h -5.12428 q -0.6126,0 -0.8775,-0.231793 -0.25663,-0.240071 -0.25663,-0.620874 0,-0.372524 0.25663,-0.604317 0.2649,-0.240072 0.8775,-0.240072 h 1.00995 v -4.122603 h -0.61259 q -0.6126,0 -0.8775,-0.231793 -0.25663,-0.240071 -0.25663,-0.620874 0,-0.372525 0.25663,-0.604318 0.2649,-0.240071 0.8775,-0.240071 z m 12.39265,0.504978 V 49.064 h 1.98679 q 0.6126,0 0.86923,0.240071 0.2649,0.231793 0.2649,0.612596 0,0.372525 -0.2649,0.612596 -0.25663,0.231793 -0.86923,0.231793 h -0.28974 v 6.175627 q 0,0.894059 -0.3808,1.556324 -0.37252,0.670544 -1.15069,1.150687 -0.77816,0.480142 -1.755,0.480142 h -1.92057 q -0.6126,0 -0.8775,-0.240071 -0.25663,-0.231793 -0.25663,-0.604317 0,-0.380803 0.25663,-0.620874 0.2649,-0.231793 0.8775,-0.231793 h 1.8709 q 0.77816,0 1.20863,-0.422195 0.43048,-0.422194 0.43048,-1.067903 v -0.827832 q -0.56293,0.364246 -1.15069,0.546369 -0.57948,0.182123 -1.19208,0.182123 -1.73017,0 -2.89741,-1.150686 -1.16724,-1.158965 -1.16724,-2.856021 0,-1.705334 1.16724,-2.856021 1.16724,-1.158964 2.89741,-1.158964 0.64571,0 1.22519,0.190401 0.58776,0.182123 1.11758,0.562926 z m -0.008,3.25338 q 0,-0.935451 -0.69538,-1.622551 -0.6871,-0.687101 -1.65566,-0.687101 -0.96857,0 -1.66395,0.687101 -0.6871,0.6871 -0.6871,1.622551 0,0.943728 0.6871,1.630829 0.69538,0.678822 1.66395,0.678822 0.96856,0 1.65566,-0.678822 0.69538,-0.687101 0.69538,-1.630829 z"
       id="text1"
       style="font-weight:bold;font-size:16.954px;line-height:1.25;font-family:'Courier New';-inkscape-font-specification:'Courier New, Bold';word-spacing:0px;fill:#f9f9f9;stroke-width:0.534896"
       aria-label="t-a-l.org" />
    <path
       d="m 36.059799,63.535732 v 1.682971 q 0,0.270258 0.11056,0.35625 0.171982,0.135129 0.614223,0.135129 0.642886,0 1.187497,-0.274353 0.208836,-0.106466 0.327586,-0.106466 0.163793,0 0.282542,0.122845 0.122845,0.122845 0.122845,0.298922 0,0.163793 -0.131034,0.282542 -0.200646,0.192457 -0.794395,0.35625 -0.589654,0.159698 -0.995041,0.159698 -0.782111,0 -1.175213,-0.335776 -0.389008,-0.33987 -0.389008,-0.831248 v -1.846764 h -0.303017 q -0.303017,0 -0.434051,-0.114655 -0.126939,-0.118749 -0.126939,-0.307111 0,-0.184267 0.126939,-0.298922 0.131034,-0.11875 0.434051,-0.11875 h 0.303017 v -0.757541 q 0,-0.303017 0.114655,-0.429956 0.118749,-0.131034 0.307111,-0.131034 0.184267,0 0.298922,0.131034 0.11875,0.126939 0.11875,0.429956 v 0.757541 h 1.551936 q 0.303017,0 0.429956,0.11875 0.131035,0.114655 0.131035,0.303017 0,0.184267 -0.131035,0.303016 -0.126939,0.114655 -0.429956,0.114655 z m 7.346106,1.445472 h -3.443743 q 0.131034,0.327585 0.462714,0.528231 0.335775,0.200647 0.904955,0.200647 0.46681,0 1.240731,-0.200647 0.319396,-0.0819 0.44224,-0.0819 0.167888,0 0.282543,0.11875 0.114655,0.11875 0.114655,0.298922 0,0.163792 -0.122845,0.278447 -0.163793,0.151509 -0.79849,0.290733 -0.634697,0.135129 -1.220256,0.135129 -1.007326,0 -1.613359,-0.56918 -0.601938,-0.56918 -0.601938,-1.400429 0,-0.884481 0.651076,-1.437281 0.655171,-0.556896 1.506894,-0.556896 0.511852,0 0.937713,0.180172 0.429956,0.180172 0.638792,0.389008 0.294827,0.303017 0.487284,0.749352 0.131034,0.311206 0.131034,0.720688 z m -0.929524,-0.839438 q -0.192457,-0.360344 -0.503663,-0.536422 -0.311206,-0.180172 -0.741162,-0.180172 -0.425862,0 -0.737068,0.180172 -0.311206,0.176078 -0.507757,0.536422 z m 4.762275,-0.462715 q -0.204741,-0.126939 -0.429956,-0.188362 -0.225215,-0.06552 -0.470904,-0.06552 -0.487284,0 -0.773921,0.159698 -0.12694,0.06961 -0.12694,0.151509 0,0.09418 0.171983,0.184266 0.131034,0.06552 0.585559,0.12694 0.835343,0.114655 1.162929,0.22931 0.429956,0.151508 0.66336,0.45043 0.233405,0.298922 0.233405,0.630602 0,0.45043 -0.397197,0.753447 -0.56918,0.438146 -1.47823,0.438146 -0.364439,0 -0.675645,-0.06552 -0.307112,-0.06142 -0.565086,-0.184266 -0.06142,0.05323 -0.131034,0.0819 -0.06961,0.02866 -0.143318,0.02866 -0.196552,0 -0.315302,-0.12694 -0.114654,-0.131034 -0.114654,-0.434051 v -0.282542 q 0,-0.303017 0.114654,-0.429956 0.11875,-0.131034 0.307112,-0.131034 0.151508,0 0.253879,0.08599 0.10237,0.0819 0.159698,0.286637 0.192456,0.163793 0.462714,0.249784 0.270258,0.0819 0.622413,0.0819 0.577369,0 0.896765,-0.180172 0.151509,-0.09009 0.151509,-0.188362 0,-0.163793 -0.217026,-0.270258 -0.217025,-0.106466 -0.896765,-0.180172 -1.011421,-0.106466 -1.351291,-0.409482 -0.33987,-0.298922 -0.33987,-0.737068 0,-0.45043 0.380819,-0.749352 0.515947,-0.409482 1.35129,-0.409482 0.290732,0 0.556895,0.05733 0.270259,0.05323 0.515948,0.167887 0.0778,-0.05733 0.143318,-0.08599 0.06961,-0.02866 0.12694,-0.02866 0.171982,0 0.286637,0.131035 0.114655,0.126939 0.114655,0.429956 v 0.204741 q 0,0.274353 -0.06552,0.372628 -0.131034,0.188362 -0.356249,0.188362 -0.151509,0 -0.266164,-0.09418 -0.114655,-0.09418 -0.147413,-0.249784 z m 3.918742,-0.143319 v 1.682971 q 0,0.270258 0.11056,0.35625 0.171982,0.135129 0.614223,0.135129 0.642886,0 1.187497,-0.274353 0.208836,-0.106466 0.327586,-0.106466 0.163793,0 0.282543,0.122845 0.122844,0.122845 0.122844,0.298922 0,0.163793 -0.131034,0.282542 -0.200646,0.192457 -0.794395,0.35625 -0.589654,0.159698 -0.995041,0.159698 -0.782111,0 -1.175213,-0.335776 -0.389008,-0.33987 -0.389008,-0.831248 v -1.846764 h -0.303017 q -0.303017,0 -0.434051,-0.114655 -0.126939,-0.118749 -0.126939,-0.307111 0,-0.184267 0.126939,-0.298922 0.131034,-0.11875 0.434051,-0.11875 h 0.303017 v -0.757541 q 0,-0.303017 0.114655,-0.429956 0.118749,-0.131034 0.307111,-0.131034 0.184267,0 0.298922,0.131034 0.11875,0.126939 0.11875,0.429956 v 0.757541 h 1.551936 q 0.303017,0 0.429956,0.11875 0.131035,0.114655 0.131035,0.303017 0,0.184267 -0.131035,0.303016 -0.126939,0.114655 -0.429956,0.114655 z m 11.02735,2.878659 v -0.196552 q -0.315302,0.167888 -0.69612,0.249784 -0.380818,0.08599 -0.692024,0.08599 -0.675645,0 -1.097412,-0.356249 -0.421766,-0.360344 -0.421766,-0.794395 0,-0.528232 0.536421,-0.978662 0.540516,-0.454525 1.490514,-0.454525 0.380819,0 0.880387,0.0819 v -0.200646 q 0,-0.188362 -0.163793,-0.307112 -0.159698,-0.11875 -0.614223,-0.11875 -0.372629,0 -0.966378,0.147414 -0.22112,0.05323 -0.343964,0.05323 -0.167888,0 -0.286638,-0.118749 -0.114655,-0.122845 -0.114655,-0.311207 0,-0.106465 0.04095,-0.184266 0.04095,-0.0778 0.114655,-0.122845 0.07371,-0.04914 0.307112,-0.114655 0.311206,-0.08599 0.634697,-0.135129 0.323491,-0.05323 0.585559,-0.05323 0.782111,0 1.212067,0.33987 0.434051,0.335776 0.434051,0.921335 v 1.728014 h 0.143318 q 0.303017,0 0.429956,0.118749 0.131035,0.114655 0.131035,0.303017 0,0.184267 -0.131035,0.303017 -0.126939,0.114655 -0.429956,0.114655 z m 0,-1.502799 q -0.503663,-0.09828 -0.929524,-0.09828 -0.511853,0 -0.880387,0.249784 -0.22931,0.159698 -0.22931,0.323491 0,0.11875 0.110561,0.192456 0.204741,0.135129 0.56099,0.135129 0.303016,0 0.683835,-0.118749 0.384913,-0.11875 0.683835,-0.323491 z m 4.696756,-3.808182 v 4.471543 h 1.007326 q 0.303016,0 0.429956,0.118749 0.131034,0.114655 0.131034,0.303017 0,0.184267 -0.131034,0.303017 -0.12694,0.114655 -0.429956,0.114655 h -2.85409 q -0.303016,0 -0.43405,-0.114655 -0.12694,-0.11875 -0.12694,-0.307112 0,-0.184267 0.12694,-0.298922 0.131034,-0.118749 0.43405,-0.118749 h 1.007326 v -3.632105 h -0.675645 q -0.298922,0 -0.429956,-0.114655 -0.131034,-0.11875 -0.131034,-0.307112 0,-0.184267 0.126939,-0.298922 0.131034,-0.118749 0.434051,-0.118749 z m 5.032536,0 v 4.471543 h 1.007325 q 0.303017,0 0.429956,0.118749 0.131035,0.114655 0.131035,0.303017 0,0.184267 -0.131035,0.303017 -0.126939,0.114655 -0.429956,0.114655 h -2.854089 q -0.303017,0 -0.434051,-0.114655 -0.126939,-0.11875 -0.126939,-0.307112 0,-0.184267 0.126939,-0.298922 0.131034,-0.118749 0.434051,-0.118749 h 1.007326 v -3.632105 h -0.675646 q -0.298921,0 -0.429956,-0.114655 -0.131034,-0.11875 -0.131034,-0.307112 0,-0.184267 0.12694,-0.298922 0.131034,-0.118749 0.43405,-0.118749 z m 10.065063,0 v 4.471543 h 1.007326 q 0.303016,0 0.429956,0.118749 0.131034,0.114655 0.131034,0.303017 0,0.184267 -0.131034,0.303017 -0.12694,0.114655 -0.429956,0.114655 H 80.13234 q -0.303017,0 -0.434051,-0.114655 -0.12694,-0.11875 -0.12694,-0.307112 0,-0.184267 0.12694,-0.298922 0.131034,-0.118749 0.434051,-0.118749 h 1.007325 V 61.942848 H 80.46402 q -0.298922,0 -0.429956,-0.114655 -0.131034,-0.11875 -0.131034,-0.307112 0,-0.184267 0.126939,-0.298922 0.131034,-0.118749 0.434051,-0.118749 z m 5.368311,5.310981 v -0.196552 q -0.315301,0.167888 -0.696119,0.249784 -0.380819,0.08599 -0.692025,0.08599 -0.675645,0 -1.097412,-0.356249 -0.421766,-0.360344 -0.421766,-0.794395 0,-0.528232 0.536421,-0.978662 0.540517,-0.454525 1.490515,-0.454525 0.380818,0 0.880386,0.0819 v -0.200646 q 0,-0.188362 -0.163793,-0.307112 -0.159698,-0.11875 -0.614223,-0.11875 -0.372628,0 -0.966377,0.147414 -0.22112,0.05323 -0.343965,0.05323 -0.167888,0 -0.286637,-0.118749 -0.114655,-0.122845 -0.114655,-0.311207 0,-0.106465 0.04095,-0.184266 0.04095,-0.0778 0.114655,-0.122845 0.07371,-0.04914 0.307111,-0.114655 0.311207,-0.08599 0.634697,-0.135129 0.323491,-0.05323 0.585559,-0.05323 0.782111,0 1.212067,0.33987 0.434051,0.335776 0.434051,0.921335 v 1.728014 h 0.143319 q 0.303016,0 0.429956,0.118749 0.131034,0.114655 0.131034,0.303017 0,0.184267 -0.131034,0.303017 -0.12694,0.114655 -0.429956,0.114655 z m 0,-1.502799 q -0.503663,-0.09828 -0.929524,-0.09828 -0.511853,0 -0.880386,0.249784 -0.22931,0.159698 -0.22931,0.323491 0,0.11875 0.11056,0.192456 0.204741,0.135129 0.56099,0.135129 0.303017,0 0.683835,-0.118749 0.384913,-0.11875 0.683835,-0.323491 z m 3.427362,-2.215298 v 0.282543 q 0.22931,-0.196551 0.503663,-0.294827 0.278448,-0.09828 0.601939,-0.09828 0.745257,0 1.179308,0.462715 0.343965,0.368534 0.343965,0.966377 v 1.560127 q 0.266163,0 0.393102,0.118749 0.12694,0.114655 0.12694,0.303017 0,0.184267 -0.131035,0.303017 -0.126939,0.114655 -0.429956,0.114655 h -0.757541 q -0.303017,0 -0.434051,-0.114655 -0.12694,-0.11875 -0.12694,-0.307112 0,-0.184267 0.12694,-0.298922 0.126939,-0.118749 0.393103,-0.118749 v -1.584696 q 0,-0.274353 -0.147414,-0.401292 -0.192457,-0.163793 -0.57737,-0.163793 -0.290732,0 -0.511852,0.114655 -0.217025,0.11056 -0.552801,0.474999 v 1.560127 q 0.323491,0 0.417672,0.06142 0.200646,0.122844 0.200646,0.360344 0,0.184267 -0.131034,0.303017 -0.12694,0.114655 -0.429956,0.114655 h -0.954093 q -0.303017,0 -0.434051,-0.114655 -0.126939,-0.11875 -0.126939,-0.307112 0,-0.22931 0.196551,-0.356249 0.09828,-0.06142 0.421766,-0.06142 v -2.039221 q -0.266163,0 -0.393102,-0.118749 -0.12694,-0.11875 -0.12694,-0.303017 0,-0.184267 0.12694,-0.298922 0.131034,-0.11875 0.434051,-0.11875 z m 6.805589,0.249784 v -0.249784 h 0.982757 q 0.303016,0 0.429956,0.11875 0.131034,0.114655 0.131034,0.303017 0,0.184267 -0.131034,0.303016 -0.12694,0.114655 -0.429956,0.114655 h -0.143319 v 3.054736 q 0,0.44224 -0.188362,0.769826 -0.184267,0.33168 -0.56918,0.56918 -0.384913,0.237499 -0.868101,0.237499 h -0.949999 q -0.303016,0 -0.43405,-0.118749 -0.12694,-0.114655 -0.12694,-0.298922 0,-0.188362 0.12694,-0.307112 0.131034,-0.114655 0.43405,-0.114655 h 0.92543 q 0.384913,0 0.597843,-0.208835 0.212931,-0.208836 0.212931,-0.528232 v -0.409482 q -0.278448,0.180172 -0.56918,0.270258 -0.286637,0.09009 -0.589654,0.09009 -0.855817,0 -1.433187,-0.56918 -0.577369,-0.573275 -0.577369,-1.412713 0,-0.843533 0.577369,-1.412712 0.57737,-0.573275 1.433187,-0.573275 0.319396,0 0.606033,0.09418 0.290733,0.09009 0.552801,0.278447 z m -0.0041,1.609264 q 0,-0.462714 -0.343965,-0.802584 -0.33987,-0.33987 -0.818964,-0.33987 -0.479093,0 -0.823058,0.33987 -0.33987,0.33987 -0.33987,0.802584 0,0.46681 0.33987,0.80668 0.343965,0.335775 0.823058,0.335775 0.479094,0 0.818964,-0.335775 0.343965,-0.33987 0.343965,-0.80668 z m 5.896545,-1.859048 v 2.878659 q 0.26616,0 0.3931,0.118749 0.12694,0.11875 0.12694,0.303017 0,0.184267 -0.13103,0.303017 -0.12694,0.114655 -0.42996,0.114655 h -0.79849 v -0.192457 q -0.36034,0.163793 -0.68793,0.245689 -0.32758,0.0819 -0.62241,0.0819 -0.41358,0 -0.71659,-0.171983 -0.30302,-0.176077 -0.4791,-0.483189 -0.12694,-0.22112 -0.12694,-0.5528 v -1.805816 h -0.143322 q -0.303016,0 -0.434051,-0.114655 -0.126939,-0.118749 -0.126939,-0.307111 0,-0.184267 0.126939,-0.298922 0.131035,-0.11875 0.434051,-0.11875 h 0.982762 v 2.49784 q 0,0.266164 0.12694,0.393103 0.13103,0.122845 0.3972,0.122845 0.25388,0 0.54461,-0.09828 0.29482,-0.102371 0.72478,-0.364439 v -1.711635 h -0.30302 q -0.30301,0 -0.43405,-0.114655 -0.12694,-0.118749 -0.12694,-0.307111 0,-0.184267 0.12694,-0.298922 0.13104,-0.11875 0.43405,-0.11875 z m 4.00474,3.718097 v -0.196552 q -0.3153,0.167888 -0.69612,0.249784 -0.38082,0.08599 -0.69203,0.08599 -0.67564,0 -1.09741,-0.356249 -0.42176,-0.360344 -0.42176,-0.794395 0,-0.528232 0.53642,-0.978662 0.54051,-0.454525 1.49051,-0.454525 0.38082,0 0.88039,0.0819 v -0.200646 q 0,-0.188362 -0.16379,-0.307112 -0.1597,-0.11875 -0.61423,-0.11875 -0.37263,0 -0.96637,0.147414 -0.22112,0.05323 -0.34397,0.05323 -0.16789,0 -0.28664,-0.118749 -0.11465,-0.122845 -0.11465,-0.311207 0,-0.106465 0.041,-0.184266 0.0409,-0.0778 0.11465,-0.122845 0.0737,-0.04914 0.3071,-0.114655 0.31122,-0.08599 0.6347,-0.135129 0.3235,-0.05323 0.58556,-0.05323 0.78211,0 1.21207,0.33987 0.43405,0.335776 0.43405,0.921335 v 1.728014 h 0.14332 q 0.30301,0 0.42995,0.118749 0.13104,0.114655 0.13104,0.303017 0,0.184267 -0.13104,0.303017 -0.12694,0.114655 -0.42995,0.114655 z m 0,-1.502799 q -0.50366,-0.09828 -0.92953,-0.09828 -0.51185,0 -0.88038,0.249784 -0.22931,0.159698 -0.22931,0.323491 0,0.11875 0.11056,0.192456 0.20474,0.135129 0.56099,0.135129 0.30302,0 0.68383,-0.118749 0.38492,-0.11875 0.68384,-0.323491 z m 5.20042,-1.965514 v -0.249784 h 0.98274 q 0.30303,0 0.42996,0.11875 0.13103,0.114655 0.13103,0.303017 0,0.184267 -0.13103,0.303016 -0.12694,0.114655 -0.42996,0.114655 h -0.14331 v 3.054736 q 0,0.44224 -0.18837,0.769826 -0.18426,0.33168 -0.56918,0.56918 -0.38491,0.237499 -0.8681,0.237499 h -0.95 q -0.30301,0 -0.43405,-0.118749 -0.12694,-0.114655 -0.12694,-0.298922 0,-0.188362 0.12694,-0.307112 0.13104,-0.114655 0.43405,-0.114655 h 0.92543 q 0.38492,0 0.59785,-0.208835 0.21293,-0.208836 0.21293,-0.528232 v -0.409482 q -0.27845,0.180172 -0.56918,0.270258 -0.28664,0.09009 -0.58966,0.09009 -0.85581,0 -1.43318,-0.56918 -0.57737,-0.573275 -0.57737,-1.412713 0,-0.843533 0.57737,-1.412712 0.57737,-0.573275 1.43318,-0.573275 0.3194,0 0.60604,0.09418 0.29073,0.09009 0.5528,0.278447 z m -0.004,1.609264 q 0,-0.462714 -0.34395,-0.802584 -0.33988,-0.33987 -0.81897,-0.33987 -0.47909,0 -0.82305,0.33987 -0.33987,0.33987 -0.33987,0.802584 0,0.46681 0.33987,0.80668 0.34396,0.335775 0.82305,0.335775 0.4791,0 0.81897,-0.335775 0.34395,-0.33987 0.34395,-0.80668 z m 6.22003,0.425862 h -3.44374 q 0.13103,0.327585 0.46271,0.528231 0.33578,0.200647 0.90496,0.200647 0.46681,0 1.24073,-0.200647 0.3194,-0.0819 0.44224,-0.0819 0.16789,0 0.28254,0.11875 0.11466,0.11875 0.11466,0.298922 0,0.163792 -0.12285,0.278447 -0.16379,0.151509 -0.79849,0.290733 -0.63469,0.135129 -1.22025,0.135129 -1.00733,0 -1.61336,-0.56918 -0.60194,-0.56918 -0.60194,-1.400429 0,-0.884481 0.65108,-1.437281 0.65517,-0.556896 1.50689,-0.556896 0.51185,0 0.93771,0.180172 0.42996,0.180172 0.63879,0.389008 0.29483,0.303017 0.48729,0.749352 0.13103,0.311206 0.13103,0.720688 z m -0.92952,-0.839438 q -0.19246,-0.360344 -0.50366,-0.536422 -0.31121,-0.180172 -0.74116,-0.180172 -0.42586,0 -0.73706,0.180172 -0.31122,0.176078 -0.50777,0.536422 z m 4.76227,-0.462715 q -0.20474,-0.126939 -0.42995,-0.188362 -0.22522,-0.06552 -0.47091,-0.06552 -0.48728,0 -0.77392,0.159698 -0.12694,0.06961 -0.12694,0.151509 0,0.09418 0.17198,0.184266 0.13104,0.06552 0.58556,0.12694 0.83535,0.114655 1.16293,0.22931 0.42996,0.151508 0.66336,0.45043 0.23341,0.298922 0.23341,0.630602 0,0.45043 -0.3972,0.753447 -0.56918,0.438146 -1.47823,0.438146 -0.36444,0 -0.67565,-0.06552 -0.30711,-0.06142 -0.56508,-0.184266 -0.0614,0.05323 -0.13102,0.0819 -0.0696,0.02866 -0.14333,0.02866 -0.19655,0 -0.31529,-0.12694 -0.11466,-0.131034 -0.11466,-0.434051 v -0.282542 q 0,-0.303017 0.11466,-0.429956 0.11875,-0.131034 0.3071,-0.131034 0.15152,0 0.25388,0.08599 0.10237,0.0819 0.15969,0.286637 0.19246,0.163793 0.46272,0.249784 0.27026,0.0819 0.62241,0.0819 0.57738,0 0.89678,-0.180172 0.1515,-0.09009 0.1515,-0.188362 0,-0.163793 -0.21703,-0.270258 -0.21702,-0.106466 -0.89677,-0.180172 -1.01142,-0.106466 -1.35129,-0.409482 -0.33987,-0.298922 -0.33987,-0.737068 0,-0.45043 0.38082,-0.749352 0.51595,-0.409482 1.35129,-0.409482 0.29073,0 0.5569,0.05733 0.27026,0.05323 0.51594,0.167887 0.0778,-0.05733 0.14332,-0.08599 0.0696,-0.02866 0.12694,-0.02866 0.17199,0 0.28665,0.131035 0.11466,0.126939 0.11466,0.429956 v 0.204741 q 0,0.274353 -0.0655,0.372628 -0.13104,0.188362 -0.35626,0.188362 -0.15151,0 -0.26616,-0.09418 -0.11466,-0.09418 -0.14741,-0.249784 z"
       id="text2"
       style="font-weight:bold;font-size:8.38619px;line-height:1.25;font-family:'Courier New';-inkscape-font-specification:'Courier New, Bold';word-spacing:0px;fill:#f9f9f9;stroke-width:0.154727"
       aria-label="test all languages" />
  </g>
</svg>
